<mxfile host="app.diagrams.net" modified="2024-03-18T14:10:14.033Z" agent="Mozilla/5.0 (Windows NT 10.0; Win64; x64) AppleWebKit/537.36 (KHTML, like Gecko) Chrome/122.0.0.0 Safari/537.36" etag="m2Mu4E-ADUHqTOW1O6dd" version="24.0.6" type="github">
  <diagram name="Страница — 1" id="slqtoTd8akjQ368UW_xO">
    <mxGraphModel dx="2012" dy="651" grid="1" gridSize="10" guides="1" tooltips="1" connect="1" arrows="1" fold="1" page="1" pageScale="1" pageWidth="827" pageHeight="1169" math="0" shadow="0">
      <root>
        <mxCell id="0" />
        <mxCell id="1" parent="0" />
        <mxCell id="vLSrUTqk1gZwWGN_NnZX-2" value="" style="swimlane;startSize=0;" parent="1" vertex="1">
          <mxGeometry x="-270" y="110" width="940" height="820" as="geometry" />
        </mxCell>
        <mxCell id="k7sPHbPUHjO9x2cmhJNs-10" style="edgeStyle=orthogonalEdgeStyle;rounded=0;orthogonalLoop=1;jettySize=auto;html=1;" edge="1" parent="vLSrUTqk1gZwWGN_NnZX-2" source="k7sPHbPUHjO9x2cmhJNs-21" target="k7sPHbPUHjO9x2cmhJNs-9">
          <mxGeometry relative="1" as="geometry">
            <Array as="points">
              <mxPoint x="101" y="285" />
              <mxPoint x="100" y="285" />
            </Array>
          </mxGeometry>
        </mxCell>
        <mxCell id="k7sPHbPUHjO9x2cmhJNs-5" value="Выбор пиццы" style="html=1;align=center;verticalAlign=top;rounded=1;absoluteArcSize=1;arcSize=10;dashed=0;whiteSpace=wrap;" vertex="1" parent="vLSrUTqk1gZwWGN_NnZX-2">
          <mxGeometry x="45" y="140" width="110" height="30" as="geometry" />
        </mxCell>
        <mxCell id="k7sPHbPUHjO9x2cmhJNs-8" style="edgeStyle=orthogonalEdgeStyle;rounded=0;orthogonalLoop=1;jettySize=auto;html=1;exitX=0.5;exitY=1;exitDx=0;exitDy=0;entryX=0.5;entryY=0;entryDx=0;entryDy=0;" edge="1" parent="vLSrUTqk1gZwWGN_NnZX-2" source="k7sPHbPUHjO9x2cmhJNs-7" target="k7sPHbPUHjO9x2cmhJNs-5">
          <mxGeometry relative="1" as="geometry" />
        </mxCell>
        <mxCell id="k7sPHbPUHjO9x2cmhJNs-7" value="" style="ellipse;fillColor=strokeColor;html=1;" vertex="1" parent="vLSrUTqk1gZwWGN_NnZX-2">
          <mxGeometry x="90" y="70" width="21.25" height="20" as="geometry" />
        </mxCell>
        <mxCell id="k7sPHbPUHjO9x2cmhJNs-12" style="edgeStyle=orthogonalEdgeStyle;rounded=0;orthogonalLoop=1;jettySize=auto;html=1;exitX=0.5;exitY=1;exitDx=0;exitDy=0;" edge="1" parent="vLSrUTqk1gZwWGN_NnZX-2" source="k7sPHbPUHjO9x2cmhJNs-9" target="k7sPHbPUHjO9x2cmhJNs-11">
          <mxGeometry relative="1" as="geometry">
            <mxPoint x="91.53857142857147" y="360" as="sourcePoint" />
            <Array as="points">
              <mxPoint x="98" y="410" />
              <mxPoint x="98" y="410" />
            </Array>
          </mxGeometry>
        </mxCell>
        <mxCell id="k7sPHbPUHjO9x2cmhJNs-9" value="Оформление заказа" style="html=1;align=center;verticalAlign=top;rounded=1;absoluteArcSize=1;arcSize=10;dashed=0;whiteSpace=wrap;" vertex="1" parent="vLSrUTqk1gZwWGN_NnZX-2">
          <mxGeometry x="44.07" y="330" width="108.13" height="40" as="geometry" />
        </mxCell>
        <mxCell id="k7sPHbPUHjO9x2cmhJNs-14" style="edgeStyle=orthogonalEdgeStyle;rounded=0;orthogonalLoop=1;jettySize=auto;html=1;entryX=0;entryY=0.5;entryDx=0;entryDy=0;" edge="1" parent="vLSrUTqk1gZwWGN_NnZX-2" source="k7sPHbPUHjO9x2cmhJNs-11" target="k7sPHbPUHjO9x2cmhJNs-13">
          <mxGeometry relative="1" as="geometry" />
        </mxCell>
        <mxCell id="k7sPHbPUHjO9x2cmhJNs-11" value="Оплатить заказ" style="html=1;align=center;verticalAlign=top;rounded=1;absoluteArcSize=1;arcSize=10;dashed=0;whiteSpace=wrap;" vertex="1" parent="vLSrUTqk1gZwWGN_NnZX-2">
          <mxGeometry x="50.639999999999944" y="430" width="95" height="30" as="geometry" />
        </mxCell>
        <mxCell id="k7sPHbPUHjO9x2cmhJNs-16" style="edgeStyle=orthogonalEdgeStyle;rounded=0;orthogonalLoop=1;jettySize=auto;html=1;" edge="1" parent="vLSrUTqk1gZwWGN_NnZX-2" source="k7sPHbPUHjO9x2cmhJNs-13" target="k7sPHbPUHjO9x2cmhJNs-15">
          <mxGeometry relative="1" as="geometry" />
        </mxCell>
        <mxCell id="k7sPHbPUHjO9x2cmhJNs-13" value="Получить заказ для доставки" style="html=1;align=center;verticalAlign=top;rounded=1;absoluteArcSize=1;arcSize=10;dashed=0;whiteSpace=wrap;" vertex="1" parent="vLSrUTqk1gZwWGN_NnZX-2">
          <mxGeometry x="262.51" y="422.5" width="100" height="45" as="geometry" />
        </mxCell>
        <mxCell id="k7sPHbPUHjO9x2cmhJNs-20" style="edgeStyle=orthogonalEdgeStyle;rounded=0;orthogonalLoop=1;jettySize=auto;html=1;entryX=1;entryY=0.5;entryDx=0;entryDy=0;" edge="1" parent="vLSrUTqk1gZwWGN_NnZX-2" source="k7sPHbPUHjO9x2cmhJNs-15" target="k7sPHbPUHjO9x2cmhJNs-18">
          <mxGeometry relative="1" as="geometry" />
        </mxCell>
        <mxCell id="k7sPHbPUHjO9x2cmhJNs-15" value="Доставить заказ" style="html=1;align=center;verticalAlign=top;rounded=1;absoluteArcSize=1;arcSize=10;dashed=0;whiteSpace=wrap;" vertex="1" parent="vLSrUTqk1gZwWGN_NnZX-2">
          <mxGeometry x="262.51" y="545" width="100" height="30" as="geometry" />
        </mxCell>
        <mxCell id="k7sPHbPUHjO9x2cmhJNs-17" value="Заказ создан и&lt;div&gt;&amp;nbsp;оплачен без ошибок&lt;/div&gt;" style="text;html=1;align=center;verticalAlign=middle;resizable=0;points=[];autosize=1;strokeColor=none;fillColor=default;" vertex="1" parent="vLSrUTqk1gZwWGN_NnZX-2">
          <mxGeometry x="127.51" y="382.5" width="140" height="40" as="geometry" />
        </mxCell>
        <mxCell id="k7sPHbPUHjO9x2cmhJNs-18" value="Оставить отзыв о заказе" style="html=1;align=center;verticalAlign=top;rounded=1;absoluteArcSize=1;arcSize=10;dashed=0;whiteSpace=wrap;" vertex="1" parent="vLSrUTqk1gZwWGN_NnZX-2">
          <mxGeometry x="30" y="537.5" width="109.07" height="45" as="geometry" />
        </mxCell>
        <mxCell id="k7sPHbPUHjO9x2cmhJNs-22" value="" style="edgeStyle=orthogonalEdgeStyle;rounded=0;orthogonalLoop=1;jettySize=auto;html=1;" edge="1" parent="vLSrUTqk1gZwWGN_NnZX-2" source="k7sPHbPUHjO9x2cmhJNs-5" target="k7sPHbPUHjO9x2cmhJNs-21">
          <mxGeometry relative="1" as="geometry">
            <mxPoint x="-170" y="280" as="sourcePoint" />
            <mxPoint x="-178" y="430" as="targetPoint" />
          </mxGeometry>
        </mxCell>
        <mxCell id="k7sPHbPUHjO9x2cmhJNs-24" style="edgeStyle=orthogonalEdgeStyle;rounded=0;orthogonalLoop=1;jettySize=auto;html=1;exitX=0;exitY=0.5;exitDx=0;exitDy=0;entryX=0;entryY=0.5;entryDx=0;entryDy=0;" edge="1" parent="vLSrUTqk1gZwWGN_NnZX-2" source="k7sPHbPUHjO9x2cmhJNs-21" target="k7sPHbPUHjO9x2cmhJNs-5">
          <mxGeometry relative="1" as="geometry">
            <Array as="points">
              <mxPoint x="10" y="240" />
              <mxPoint x="10" y="155" />
            </Array>
          </mxGeometry>
        </mxCell>
        <mxCell id="k7sPHbPUHjO9x2cmhJNs-21" value="" style="shape=rhombus;perimeter=rhombusPerimeter;whiteSpace=wrap;html=1;align=center;" vertex="1" parent="vLSrUTqk1gZwWGN_NnZX-2">
          <mxGeometry x="85.62999999999994" y="230" width="30" height="20" as="geometry" />
        </mxCell>
        <mxCell id="k7sPHbPUHjO9x2cmhJNs-25" value="[Нет]" style="edgeLabel;html=1;align=center;verticalAlign=middle;resizable=0;points=[];" vertex="1" connectable="0" parent="vLSrUTqk1gZwWGN_NnZX-2">
          <mxGeometry x="830" y="120" as="geometry">
            <mxPoint x="-782" y="119" as="offset" />
          </mxGeometry>
        </mxCell>
        <mxCell id="k7sPHbPUHjO9x2cmhJNs-27" value="[Да]" style="edgeLabel;html=1;align=center;verticalAlign=middle;resizable=0;points=[];" vertex="1" connectable="0" parent="vLSrUTqk1gZwWGN_NnZX-2">
          <mxGeometry x="880" y="170" as="geometry">
            <mxPoint x="-782" y="119" as="offset" />
          </mxGeometry>
        </mxCell>
        <mxCell id="k7sPHbPUHjO9x2cmhJNs-1" value="" style="endArrow=none;dashed=1;html=1;dashPattern=1 3;strokeWidth=2;rounded=0;entryX=0.5;entryY=0;entryDx=0;entryDy=0;exitX=0.5;exitY=1;exitDx=0;exitDy=0;" edge="1" parent="1" source="vLSrUTqk1gZwWGN_NnZX-2" target="vLSrUTqk1gZwWGN_NnZX-2">
          <mxGeometry width="50" height="50" relative="1" as="geometry">
            <mxPoint x="-30" y="1150" as="sourcePoint" />
            <mxPoint x="-30" y="190" as="targetPoint" />
          </mxGeometry>
        </mxCell>
        <mxCell id="k7sPHbPUHjO9x2cmhJNs-2" value="Пользователь" style="text;html=1;align=center;verticalAlign=middle;resizable=0;points=[];autosize=1;strokeColor=none;fillColor=none;" vertex="1" parent="1">
          <mxGeometry x="-220" y="128" width="100" height="30" as="geometry" />
        </mxCell>
        <mxCell id="k7sPHbPUHjO9x2cmhJNs-3" value="Курьер" style="text;html=1;align=center;verticalAlign=middle;resizable=0;points=[];autosize=1;strokeColor=none;fillColor=none;" vertex="1" parent="1">
          <mxGeometry x="20" y="128" width="60" height="30" as="geometry" />
        </mxCell>
        <mxCell id="k7sPHbPUHjO9x2cmhJNs-23" value="[Заказ полностью составлен]" style="edgeLabel;html=1;align=center;verticalAlign=middle;resizable=0;points=[];" vertex="1" connectable="0" parent="1">
          <mxGeometry x="645" y="260" as="geometry">
            <mxPoint x="-815" y="50" as="offset" />
          </mxGeometry>
        </mxCell>
      </root>
    </mxGraphModel>
  </diagram>
</mxfile>
